<?xml version="1.0" encoding="UTF-8"?>
<svg xmlns="http://www.w3.org/2000/svg" viewBox="45 45 130 70">
  <style>
    .cls-1 {
      fill: #7FB3D5;
    }
    @media (prefers-color-scheme: dark) {
      .cls-1 {
        fill: #7FB3D5;
      }
    }
    @media (prefers-color-scheme: light) {
      .cls-1 {
        fill: #3498DB;
      }
    }
  </style>
  <path class="cls-1" d="M50.94,72.65c-2.3-.81-3.85-1.97-4.65-3.48l4.99-4.08c.22,2.37,1.01,4.23,2.35,5.59,1.34,1.36,3.04,2.04,5.08,2.04,1.44,0,2.63-.34,3.57-1.03.94-.69,1.41-1.64,1.41-2.85,0-.89-.5-1.63-1.49-2.21-.99-.58-2.56-1.23-4.7-1.97-.96-.32-1.68-.58-2.16-.77-2.46-.9-4.4-1.91-5.8-3.04-1.41-1.13-2.11-2.61-2.11-4.44,0-2.52.97-4.38,2.9-5.56,1.93-1.18,4.58-1.77,7.93-1.77,2.11,0,4.11.21,5.99.62,1.89.42,3.23.88,4.03,1.39l-2.54,4.7c-.48-.35-.89-.72-1.22-1.1-.34-.38-.73-.88-1.17-1.49-.73-1.02-1.44-1.77-2.11-2.25-.67-.48-1.66-.72-2.97-.72-1.44,0-2.63.39-3.57,1.17-.94.78-1.41,1.8-1.41,3.04,0,1.15.58,2.08,1.75,2.78,1.17.7,2.92,1.47,5.25,2.3,2.08.7,3.71,1.33,4.91,1.87,1.2.54,2.24,1.26,3.12,2.16.88.9,1.32,1.97,1.32,3.21,0,2.4-.98,4.18-2.95,5.34-1.97,1.17-4.64,1.75-8.03,1.75-2.84,0-5.42-.41-7.72-1.22Z"/>
  <path class="cls-1" d="M108.48,65.43c.16,1.15.4,2.41.72,3.79.38,1.89.62,3.31.72,4.27h-9.35c.1-.96.34-2.38.72-4.27.32-1.34.56-2.6.72-3.79.16-1.18.26-2.57.29-4.17,0-2.59-.25-4.71-.74-6.38-.5-1.66-1.49-2.49-3-2.49-1.05,0-1.96.46-2.71,1.37-.75.91-1.33,2.05-1.73,3.43s-.62,2.77-.65,4.17c.03,1.57.13,2.92.29,4.08.16,1.15.4,2.41.72,3.79.38,1.92.62,3.34.72,4.27h-9.35c.1-.96.34-2.38.72-4.27.32-1.34.56-2.6.72-3.79.16-1.18.26-2.57.29-4.17,0-2.65-.25-4.85-.74-6.59-.5-1.74-1.49-2.61-3-2.61-.93,0-1.76.42-2.49,1.27-.74.85-1.33,1.93-1.77,3.24-.45,1.31-.7,2.64-.77,3.98-.03.19-.05.51-.05.96.03,1.53.13,2.87.29,4,.16,1.13.4,2.39.72,3.76.38,1.92.62,3.33.72,4.22h-9.35c.09-.89.34-2.3.72-4.22.32-1.37.56-2.63.72-3.76.16-1.13.26-2.47.29-4-.03-1.53-.13-2.88-.29-4.05-.16-1.17-.4-2.4-.72-3.72-.38-1.92-.62-3.32-.72-4.22h9.35c-.06.74-.22,1.77-.48,3.12,1.47-2.05,3.5-3.07,6.09-3.07s4.32.68,5.39,2.04c1.07,1.36,1.7,3.12,1.89,5.3.32-1.95,1.08-3.66,2.28-5.13,1.2-1.47,2.92-2.21,5.15-2.21s3.76.51,4.84,1.53c1.09,1.02,1.78,2.25,2.09,3.67.3,1.42.46,3.04.46,4.87v1.68c.03,1.6.13,2.97.29,4.12Z"/>
  <path class="cls-1" d="M137,69.7l-.77,3.59c-.32.03-.75.05-1.29.05-1.76,0-3.13-.27-4.12-.81-.99-.54-1.74-1.41-2.25-2.59-.67,1.22-1.65,2.17-2.95,2.88s-2.9,1.05-4.82,1.05c-2.78,0-5.05-.61-6.81-1.82-1.76-1.21-2.64-3.04-2.64-5.46,0-1.73.49-3.07,1.46-4.03.97-.96,2.09-1.63,3.33-2.01,1.25-.38,3.07-.81,5.46-1.29,1.34-.32,2.43-.64,3.26-.96.83-.32,1.49-.8,1.99-1.44.5-.64.74-1.49.74-2.54,0-.96-.16-1.7-.48-2.23-.32-.53-.9-.79-1.73-.79-.96,0-2.53.5-4.72,1.49-2.19.99-4.16,2.03-5.92,3.12l-2.49-4.65c1.25-.64,2.84-1.15,4.77-1.53,1.93-.38,3.96-.58,6.07-.58,3.29,0,5.84.58,7.65,1.73s2.72,2.96,2.76,5.42v7.05c0,2.01.11,3.66.34,4.94s.72,1.93,1.49,1.97c.54,0,1.1-.18,1.68-.53ZM126.26,69.72c.9-1.87,1.34-4.39,1.34-7.55v-2.78c-1.79.38-3.21.75-4.27,1.1-3.9,1.38-5.85,3.74-5.85,7.1,0,1.41.38,2.58,1.13,3.52.75.94,1.85,1.41,3.28,1.41,2.01,0,3.47-.94,4.36-2.81Z"/>
  <path class="cls-1" d="M146.21,61.12c0,1.6.09,2.97.26,4.12s.42,2.48.74,3.98c.38,1.89.62,3.31.72,4.27h-9.35c.09-.96.34-2.38.72-4.27.32-1.5.57-2.83.74-3.98.18-1.15.26-2.52.26-4.12v-8.82c0-1.63-.09-3.02-.26-4.17-.18-1.15-.42-2.48-.74-3.98-.38-1.79-.62-3.2-.72-4.22h9.35c-.09,1.02-.34,2.43-.72,4.22-.32,1.5-.57,2.83-.74,3.98s-.26,2.54-.26,4.17v8.82Z"/>
  <path class="cls-1" d="M157.33,61.12c0,1.6.09,2.97.26,4.12s.42,2.48.74,3.98c.38,1.89.62,3.31.72,4.27h-9.35c.09-.96.34-2.38.72-4.27.32-1.5.57-2.83.74-3.98.18-1.15.26-2.52.26-4.12v-8.82c0-1.63-.09-3.02-.26-4.17-.18-1.15-.42-2.48-.74-3.98-.38-1.79-.62-3.2-.72-4.22h9.35c-.09,1.02-.34,2.43-.72,4.22-.32,1.5-.57,2.83-.74,3.98s-.26,2.54-.26,4.17v8.82Z"/>
  <path class="cls-1" d="M66.16,99.79c-2.3-.81-3.85-1.97-4.65-3.48l4.99-4.08c.22,2.37,1.01,4.23,2.35,5.59,1.34,1.36,3.04,2.04,5.08,2.04,1.44,0,2.63-.34,3.57-1.03.94-.69,1.41-1.64,1.41-2.85,0-.89-.5-1.63-1.49-2.21-.99-.58-2.56-1.23-4.7-1.97-.96-.32-1.68-.58-2.16-.77-2.46-.9-4.4-1.91-5.8-3.04s-2.11-2.61-2.11-4.44c0-2.52.97-4.38,2.9-5.56,1.93-1.18,4.58-1.77,7.93-1.77,2.11,0,4.11.21,5.99.62,1.89.42,3.23.88,4.03,1.39l-2.54,4.7c-.48-.35-.89-.72-1.22-1.1-.34-.38-.73-.88-1.17-1.49-.73-1.02-1.44-1.77-2.11-2.25-.67-.48-1.66-.72-2.97-.72-1.44,0-2.63.39-3.57,1.17-.94.78-1.41,1.8-1.41,3.04,0,1.15.58,2.08,1.75,2.78,1.17.7,2.92,1.47,5.25,2.3,2.08.7,3.71,1.33,4.91,1.87,1.2.54,2.24,1.26,3.12,2.16.88.9,1.32,1.97,1.32,3.21,0,2.4-.98,4.18-2.95,5.34-1.97,1.17-4.64,1.75-8.03,1.75-2.84,0-5.42-.41-7.72-1.22Z"/>
  <path class="cls-1" d="M132.79,76.7c-.1,1.03-.34,2.44-.72,4.22-.32,1.51-.57,2.83-.74,3.98-.18,1.15-.27,2.54-.27,4.17v11.7c0,.52-.01,1.02-.03,1.48-.23,5.46-4.71,9.82-10.17,9.77-6.09-.06-12.8-3.14-17.19-3.71-10.97-2.04-16.83,2.58-16.83,2.58v-8.7s3.57.17,14.78,3.57c.67.2,4.21,1.5,6.06,1.75,5,.68,8.77.48,11.5,0,3.48-.61,5.98-3.7,5.98-7.23v-4.74c-.54,1.56-1.42,2.86-2.63,3.88-1.22,1.02-2.78,1.53-4.7,1.53-2.14,0-3.75-.49-4.82-1.48-1.07-.99-1.77-2.19-2.08-3.6-.32-1.4-.48-3.02-.48-4.84v-2.01c0-1.63-.09-3.02-.27-4.17-.17-1.16-.42-2.48-.74-3.98-.38-1.79-.62-3.2-.72-4.22h9.35c-.1,1.02-.34,2.43-.72,4.22-.32,1.5-.57,2.82-.74,3.98-.18,1.15-.27,2.54-.27,4.17.03,2.75.29,5,.77,6.76.48,1.75,1.47,2.63,2.97,2.63.96,0,1.83-.48,2.62-1.44.78-.95,1.39-2.15,1.82-3.59.43-1.44.64-2.84.64-4.22v-.1c0-1.63-.08-3.02-.26-4.17-.18-1.15-.42-2.47-.74-3.98-.38-1.78-.63-3.19-.72-4.22h9.35Z"/>
  <path class="cls-1" d="M104.26,96.15c.96-.85,1.45-1.94,1.49-3.28h1.77c-.1,2.49-.92,4.55-2.47,6.16s-3.78,2.42-6.69,2.42c-3.39,0-6.17-1.05-8.34-3.14-2.17-2.09-3.26-5.26-3.26-9.52,0-3,.39-5.42,1.17-7.26.78-1.84,2.02-3.18,3.71-4.03s3.92-1.27,6.66-1.27c6.17,0,9.25,2,9.25,5.99,0,2.84-1.34,4.91-4.03,6.21-2.68,1.29-5.8,2.04-9.35,2.23.48,2.27,1.29,3.96,2.42,5.08,1.13,1.12,2.52,1.68,4.15,1.68,1.37,0,2.54-.42,3.5-1.27ZM94.89,79.66c-.72,1.49-1.08,3.65-1.08,6.5,0,.99.05,1.92.14,2.78,2.27-.22,4.15-.91,5.63-2.06,1.49-1.15,2.23-2.77,2.23-4.84,0-1.47-.29-2.6-.86-3.4s-1.44-1.2-2.59-1.2c-1.6,0-2.76.74-3.48,2.23Z"/>
  <path class="cls-1" d="M138.03,99.79c-2.3-.81-3.85-1.97-4.65-3.48l4.99-4.08c.22,2.37,1.01,4.23,2.35,5.59,1.34,1.36,3.04,2.04,5.08,2.04,1.44,0,2.63-.34,3.57-1.03.94-.69,1.41-1.64,1.41-2.85,0-.89-.5-1.63-1.49-2.21-.99-.58-2.56-1.23-4.7-1.97-.96-.32-1.68-.58-2.16-.77-2.46-.9-4.4-1.91-5.8-3.04s-2.11-2.61-2.11-4.44c0-2.52.97-4.38,2.9-5.56,1.93-1.18,4.58-1.77,7.93-1.77,2.11,0,4.11.21,5.99.62,1.89.42,3.23.88,4.03,1.39l-2.54,4.7c-.48-.35-.89-.72-1.22-1.1-.34-.38-.73-.88-1.17-1.49-.73-1.02-1.44-1.77-2.11-2.25-.67-.48-1.66-.72-2.97-.72-1.44,0-2.63.39-3.57,1.17-.94.78-1.41,1.8-1.41,3.04,0,1.15.58,2.08,1.75,2.78,1.17.7,2.92,1.47,5.25,2.3,2.08.7,3.71,1.33,4.91,1.87,1.2.54,2.24,1.26,3.12,2.16.88.9,1.32,1.97,1.32,3.21,0,2.4-.98,4.18-2.95,5.34-1.97,1.17-4.64,1.75-8.03,1.75-2.84,0-5.42-.41-7.72-1.22Z"/>
  <path class="cls-1" d="M162.21,99.79c-2.3-.81-3.85-1.97-4.65-3.48l4.99-4.08c.22,2.37,1.01,4.23,2.35,5.59,1.34,1.36,3.04,2.04,5.08,2.04,1.44,0,2.63-.34,3.57-1.03.94-.69,1.41-1.64,1.41-2.85,0-.89-.5-1.63-1.49-2.21-.99-.58-2.56-1.23-4.7-1.97-.96-.32-1.68-.58-2.16-.77-2.46-.9-4.4-1.91-5.8-3.04s-2.11-2.61-2.11-4.44c0-2.52.97-4.38,2.9-5.56,1.93-1.18,4.58-1.77,7.93-1.77,2.11,0,4.11.21,5.99.62,1.89.42,3.23.88,4.03,1.39l-2.54,4.7c-.48-.35-.89-.72-1.22-1.1-.34-.38-.73-.88-1.17-1.49-.73-1.02-1.44-1.77-2.11-2.25-.67-.48-1.66-.72-2.97-.72-1.44,0-2.63.39-3.57,1.17-.94.78-1.41,1.8-1.41,3.04,0,1.15.58,2.08,1.75,2.78,1.17.7,2.92,1.47,5.25,2.3,2.08.7,3.71,1.33,4.91,1.87,1.2.54,2.24,1.26,3.12,2.16.88.9,1.32,1.97,1.32,3.21,0,2.4-.98,4.18-2.95,5.34-1.97,1.17-4.64,1.75-8.03,1.75-2.84,0-5.42-.41-7.72-1.22Z"/>
</svg> 